<svg width="24" height="24" viewBox="0 0 24 24" fill="none" xmlns="http://www.w3.org/2000/svg">
<path d="M5.93071 15.4894L14.4907 19.7694C20.2407 22.6494 22.6007 20.2894 19.7207 14.5394L18.8507 12.7994C18.6007 12.2894 18.6007 11.6994 18.8507 11.1894L19.7207 9.45938C22.6007 3.70938 20.2507 1.34938 14.4907 4.22938L5.93071 8.50938C2.09071 10.4294 2.09071 13.5694 5.93071 15.4894ZM9.16071 11.2494L14.5607 11.2494C14.9707 11.2494 15.3107 11.5894 15.3107 11.9994C15.3107 12.4094 14.9707 12.7494 14.5607 12.7494L9.16071 12.7494C8.75071 12.7494 8.41071 12.4094 8.41071 11.9994C8.41071 11.5894 8.75071 11.2494 9.16071 11.2494Z" fill="#414370"/>
</svg>
